<svg width="90" height="90" viewBox="0 0 90 90" fill="none" xmlns="http://www.w3.org/2000/svg">
<g clip-path="url(#clip0_4169_646)">
<rect x="5" y="5" width="80" height="80" rx="7" fill="#B20237"/>
<rect x="1" y="1" width="88" height="88" rx="10" stroke="#B20237" stroke-width="2"/>
<path d="M74 40.3521C74 44.2739 61.464 47.4531 46 47.4531C30.536 47.4531 18 44.2739 18 40.3521C18 38.1213 22.0563 36.1307 28.4005 34.8289L30.8146 25.7765C31.6762 22.5457 35.6646 21.1322 38.7643 22.5671C41.0833 23.6407 43.7118 24.549 46 24.5722C48.4866 24.5974 51.367 23.6425 53.8813 22.5201C57.0306 21.1142 61.028 22.6587 61.7797 25.9474L63.8204 34.8747C70.0377 36.1771 74 38.1473 74 40.3521Z" fill="white"/>
<path fill-rule="evenodd" clip-rule="evenodd" d="M64.9549 51.0038C59.2737 51.7929 53.5935 52.1871 46.2882 52.1871C38.983 52.1871 33.3028 51.7929 27.6216 51.0038C25.1868 50.6657 23.8736 53.0914 24.781 55.7377C28.0274 65.2055 38.5781 66.9429 41.8245 65.6001C42.7401 65.2214 43.4157 64.5198 44.0374 63.8741C44.7625 63.1211 45.4144 62.4441 46.2882 62.4441C47.1621 62.4441 47.814 63.1211 48.5391 63.8741C49.1608 64.5198 49.8364 65.2214 50.752 65.6001C53.9984 66.9429 64.5491 65.2055 67.7955 55.7377C68.7028 53.0914 67.3897 50.6657 64.9549 51.0038ZM31.3909 56.921C31.6688 55.5698 33.8257 55.3431 35.4489 55.3431C37.4779 55.3431 41.9428 56.132 41.9428 57.71C41.9428 59.6709 39.1533 61.1682 36.6666 60.866C33.4203 60.4715 31.194 57.8787 31.3909 56.921ZM56.9577 55.3431C58.5809 55.3431 60.7378 55.5698 61.0157 56.921C61.2126 57.8787 58.9863 60.4715 55.74 60.866C53.2533 61.1682 50.4638 59.6709 50.4638 57.71C50.4638 56.132 54.9287 55.3431 56.9577 55.3431Z" fill="white"/>
<path d="M28.4005 34.8289L27.1471 39.5286C27.0286 39.9731 27.3188 40.4198 27.7845 40.4962C30.5553 40.9507 39.4708 42.3246 46 42.3246C52.5517 42.3246 61.5064 40.9412 64.244 40.4915C64.6986 40.4168 64.9892 39.9878 64.8892 39.5503L63.8204 34.8747M28.4005 34.8289L30.8146 25.7765C31.6762 22.5457 35.6646 21.1322 38.7643 22.5671C41.0833 23.6407 43.7118 24.549 46 24.5722C48.4866 24.5974 51.367 23.6425 53.8813 22.5201C57.0306 21.1142 61.028 22.6587 61.7797 25.9474L63.8204 34.8747M28.4005 34.8289C22.0563 36.1307 18 38.1213 18 40.3521C18 44.2739 30.536 47.4531 46 47.4531C61.464 47.4531 74 44.2739 74 40.3521C74 38.1473 70.0377 36.1771 63.8204 34.8747M31.3909 56.921C31.6688 55.5698 33.8257 55.3431 35.4489 55.3431C37.4779 55.3431 41.9428 56.1321 41.9428 57.71C41.9428 59.6709 39.1533 61.1682 36.6666 60.866C33.4203 60.4715 31.194 57.8787 31.3909 56.921ZM61.0157 56.921C60.7378 55.5698 58.5809 55.3431 56.9577 55.3431C54.9287 55.3431 50.4638 56.1321 50.4638 57.71C50.4638 59.6709 53.2533 61.1682 55.74 60.866C58.9863 60.4715 61.2126 57.8787 61.0157 56.921ZM46.2882 52.1871C53.5935 52.1871 59.2737 51.7929 64.9549 51.0038C67.3897 50.6657 68.7028 53.0914 67.7955 55.7377C64.5491 65.2055 53.9984 66.9429 50.752 65.6001C49.8364 65.2214 49.1608 64.5198 48.5391 63.8741C47.814 63.1211 47.1621 62.4441 46.2882 62.4441C45.4144 62.4441 44.7625 63.1211 44.0374 63.8741C43.4157 64.5198 42.7401 65.2214 41.8245 65.6001C38.5781 66.9429 28.0274 65.2055 24.781 55.7377C23.8736 53.0914 25.1868 50.6657 27.6216 51.0038C33.3028 51.7929 38.983 52.1871 46.2882 52.1871Z" stroke="#B20237" stroke-width="1.5" stroke-linecap="round"/>
</g>
<defs>
<clipPath id="clip0_4169_646">
<rect width="90" height="90" fill="white"/>
</clipPath>
</defs>
</svg>
