<svg width="90" height="91" viewBox="0 0 90 91" fill="none" xmlns="http://www.w3.org/2000/svg">
<g clip-path="url(#clip0_4169_1038)">
<rect x="5" y="5.5" width="80" height="80" rx="7" fill="#B20237"/>
<rect x="1" y="1.5" width="88" height="88" rx="10" stroke="#B20237" stroke-width="2"/>
<path d="M19 68.5C19 68.8506 19.1216 69.1872 19.3452 69.5C20.178 70.6652 22.4252 71.5 25.0666 71.5C27.708 71.5 29.9551 70.6652 30.788 69.5C31.0115 69.1872 31.1332 68.8506 31.1332 68.5V67.5V64.5C31.1332 65.2684 30.549 65.9692 29.5884 66.5C28.4776 67.1138 26.8633 67.5 25.0666 67.5C23.2699 67.5 21.6556 67.1138 20.5447 66.5C19.5841 65.9692 19 65.2684 19 64.5V68.5Z" fill="white"/>
<path d="M50.344 49.5168V43.5C54.3884 43.5 57.4216 43.0001 57.4216 46.5C57.4216 49.5154 55.1702 49.5618 50.344 49.5168Z" fill="white"/>
<path d="M50.8495 30.5H51.327H52.3662H54.3326C56.1564 30.5 57.7546 29.2927 58.2344 27.5525L60.0802 20.8588C60.2055 20.4046 59.6633 20.0162 59.2492 20.2483C58.2017 20.8355 56.659 21.547 55.3995 21.5C53.4564 21.4275 52.794 19.5 50.8495 19.5C48.9051 19.5 48.2427 21.4275 46.2996 21.5C45.0401 21.547 43.4974 20.8355 42.4498 20.2483C42.0357 20.0162 41.4936 20.4046 41.6188 20.8588L43.4646 27.5525C43.9445 29.2927 45.5427 30.5 47.3665 30.5H49.3329H50.8495Z" fill="white"/>
<path fill-rule="evenodd" clip-rule="evenodd" d="M51.327 30.5H50.8495C50.3124 30.5 49.78 30.5212 49.2533 30.5629C45.9578 30.8238 42.8825 31.8856 40.233 33.5559V52.9013C42.0463 53.4201 43.2663 54.3896 43.2663 55.5V66.5H60.8887C66.6933 66.5 71.3061 61.6773 70.9841 55.9453L70.5659 48.5C70.0187 38.7579 62.14 31.0606 52.4032 30.5293C52.0469 30.5098 51.688 30.5 51.327 30.5ZM50.344 49.5168V43.5C54.3884 43.5 57.4216 43.0001 57.4216 46.5C57.4216 49.5154 55.1702 49.5618 50.344 49.5168Z" fill="white"/>
<path d="M28.0999 35.5C31.4503 35.5 34.1664 36.8431 34.1664 38.5V52.9013C35.0588 52.6461 36.0947 52.5 37.1997 52.5C38.3047 52.5 39.3407 52.6461 40.233 52.9013V33.5559V25.5C40.233 27.1569 37.5169 28.5 34.1664 28.5C30.816 28.5 28.0999 27.1569 28.0999 25.5V35.5Z" fill="white"/>
<path d="M22.0333 38.5V61.5H25.0666C26.1716 61.5 27.2076 61.6461 28.0999 61.9013C29.9132 62.4201 31.1332 63.3896 31.1332 64.5V61.5V55.5C31.1332 54.3896 32.3531 53.4201 34.1664 52.9013V38.5C34.1664 40.1569 31.4503 41.5 28.0999 41.5C24.7494 41.5 22.0333 40.1569 22.0333 38.5Z" fill="white"/>
<path d="M28.0999 41.5C31.4503 41.5 34.1664 40.1569 34.1664 38.5C34.1664 36.8431 31.4503 35.5 28.0999 35.5C24.7494 35.5 22.0333 36.8431 22.0333 38.5C22.0333 40.1569 24.7494 41.5 28.0999 41.5Z" fill="white"/>
<path d="M34.1664 28.5C37.5169 28.5 40.233 27.1569 40.233 25.5C40.233 23.8431 37.5169 22.5 34.1664 22.5C30.816 22.5 28.0999 23.8431 28.0999 25.5C28.0999 27.1569 30.816 28.5 34.1664 28.5Z" fill="white"/>
<path d="M31.1332 64.5V67.5C31.1332 68.6046 33.8493 69.5 37.1997 69.5C40.5502 69.5 43.2663 68.6046 43.2663 67.5V66.5V55.5C43.2663 56.6104 42.0463 57.5799 40.233 58.0987C39.3407 58.3539 38.3047 58.5 37.1997 58.5C36.0947 58.5 35.0588 58.3539 34.1664 58.0987C32.3531 57.5799 31.1332 56.6104 31.1332 55.5V61.5V64.5Z" fill="white"/>
<path d="M34.1664 52.9013C32.3531 53.4201 31.1332 54.3896 31.1332 55.5C31.1332 56.6104 32.3531 57.5799 34.1664 58.0987C35.0588 58.3539 36.0947 58.5 37.1997 58.5C38.3047 58.5 39.3407 58.3539 40.233 58.0987C42.0463 57.5799 43.2663 56.6104 43.2663 55.5C43.2663 54.3896 42.0463 53.4201 40.233 52.9013C39.3407 52.6461 38.3047 52.5 37.1997 52.5C36.0947 52.5 35.0588 52.6461 34.1664 52.9013Z" fill="white"/>
<path d="M25.0666 61.5C21.7161 61.5 19 62.8431 19 64.5C19 65.2684 19.5841 65.9692 20.5447 66.5C21.6556 67.1138 23.2699 67.5 25.0666 67.5C26.8633 67.5 28.4776 67.1138 29.5884 66.5C30.549 65.9692 31.1332 65.2684 31.1332 64.5C31.1332 63.3896 29.9132 62.4201 28.0999 61.9013C27.2076 61.6461 26.1716 61.5 25.0666 61.5Z" fill="white"/>
<path d="M22.0333 38.5V61.5H25.0666M22.0333 38.5C22.0333 40.1569 24.7494 41.5 28.0999 41.5C31.4503 41.5 34.1664 40.1569 34.1664 38.5M22.0333 38.5C22.0333 36.8431 24.7494 35.5 28.0999 35.5M34.1664 38.5C34.1664 36.8431 31.4503 35.5 28.0999 35.5M34.1664 38.5V52.9013M28.0999 35.5V25.5M28.0999 25.5C28.0999 27.1569 30.816 28.5 34.1664 28.5C37.5169 28.5 40.233 27.1569 40.233 25.5M28.0999 25.5C28.0999 23.8431 30.816 22.5 34.1664 22.5C37.5169 22.5 40.233 23.8431 40.233 25.5M40.233 25.5V33.5559M51.327 30.5H50.8495M51.327 30.5C51.688 30.5 52.0469 30.5098 52.4032 30.5293M51.327 30.5H52.3662M50.8495 30.5V34.5M50.8495 30.5C50.3124 30.5 49.78 30.5212 49.2533 30.5629M50.8495 30.5H49.3329M47.3665 30.5H54.3326M47.3665 30.5C45.5427 30.5 43.9445 29.2927 43.4646 27.5525L41.6188 20.8588C41.4936 20.4046 42.0357 20.0162 42.4498 20.2483C43.4974 20.8355 45.04 21.547 46.2996 21.5C48.2427 21.4275 48.9051 19.5 50.8495 19.5C52.794 19.5 53.4564 21.4275 55.3995 21.5C56.659 21.547 58.2017 20.8355 59.2492 20.2483C59.6633 20.0162 60.2055 20.4046 60.0802 20.8588L58.2344 27.5525C57.7546 29.2927 56.1564 30.5 54.3326 30.5M47.3665 30.5H49.3329M54.3326 30.5H52.3662M49.3329 30.5L49.2533 30.5629M49.3329 30.5L49.6657 30.1584C49.6657 30.1584 48.774 28.8831 48.3218 28C47.8414 27.0619 47.3107 25.5 47.3107 25.5M44.2774 34.5L49.2533 30.5629M52.3662 30.5L52.4032 30.5293M52.3662 30.5L52.3661 30.1584C52.3661 30.1584 53.4184 28.918 53.8828 28C54.3482 27.0801 54.7211 25.5 54.7211 25.5M57.4216 34.5L52.4032 30.5293M19 64.5C19 62.8431 21.7161 61.5 25.0666 61.5M19 64.5V68.5C19 68.8506 19.1216 69.1872 19.3452 69.5C20.178 70.6652 22.4252 71.5 25.0666 71.5C27.708 71.5 29.9551 70.6652 30.788 69.5C31.0115 69.1872 31.1332 68.8506 31.1332 68.5M19 64.5C19 65.2684 19.5841 65.9692 20.5447 66.5C21.6556 67.1137 23.2699 67.5 25.0666 67.5C26.8633 67.5 28.4776 67.1138 29.5884 66.5C30.549 65.9692 31.1332 65.2684 31.1332 64.5M25.0666 61.5C26.1716 61.5 27.2076 61.6461 28.0999 61.9013C29.9132 62.4201 31.1332 63.3896 31.1332 64.5M31.1332 64.5V68.5M31.1332 64.5V61.5M31.1332 64.5V67.5M31.1332 68.5V67.5M31.1332 55.5C31.1332 54.3896 32.3531 53.4201 34.1664 52.9013M31.1332 55.5C31.1332 56.6104 32.3531 57.5799 34.1664 58.0987C35.0588 58.3539 36.0947 58.5 37.1997 58.5C38.3047 58.5 39.3407 58.3539 40.233 58.0987C42.0463 57.5799 43.2663 56.6104 43.2663 55.5M31.1332 55.5V61.5M43.2663 55.5C43.2663 54.3896 42.0463 53.4201 40.233 52.9013M43.2663 55.5V66.5M31.1332 67.5C31.1332 68.6046 33.8493 69.5 37.1997 69.5C40.5502 69.5 43.2663 68.6046 43.2663 67.5V66.5M31.1332 67.5V61.5M34.1664 52.9013C35.0588 52.6461 36.0947 52.5 37.1997 52.5C38.3047 52.5 39.3407 52.6461 40.233 52.9013M40.233 52.9013V33.5559M40.233 33.5559C42.8825 31.8856 45.9578 30.8238 49.2533 30.5629M43.2663 66.5H60.8887C66.6933 66.5 71.3061 61.6773 70.9841 55.9453L70.5659 48.5C70.0187 38.7579 62.14 31.0606 52.4032 30.5293M69.5548 31C62.4771 28.0001 58.4327 30 55.3995 30.5C58.4327 30 65.2071 31.4 68.0382 35M68.0382 55C68.0382 55 67.8383 58.8113 66.016 60.5C64.0938 62.2812 59.4438 62.5 59.4438 62.5M50.344 49.5168V43.5C54.3884 43.5 57.4216 43.0001 57.4216 46.5C57.4216 49.5154 55.1702 49.5618 50.344 49.5168ZM50.344 49.5168V54.5M50.344 49.5168C49.5683 49.5096 48.3218 49.5 48.3218 49.5M52.3662 52.5H48.3218" stroke="#B20237" stroke-width="1.5" stroke-linecap="round"/>
</g>
<defs>
<clipPath id="clip0_4169_1038">
<rect width="90" height="90" fill="white" transform="translate(0 0.5)"/>
</clipPath>
</defs>
</svg>
